<?xml version="1.0" encoding="UTF-8" standalone="no"?>
<svg
   version="1.1"
   width="211.40221"
   height="228.00015"
   id="svg9"
   viewBox="0 0 211.4022 228.00015"
   sodipodi:docname="17c8a556ff115cdd67f51b45296a4a30.cdr"
   xmlns:inkscape="http://www.inkscape.org/namespaces/inkscape"
   xmlns:sodipodi="http://sodipodi.sourceforge.net/DTD/sodipodi-0.dtd"
   xmlns="http://www.w3.org/2000/svg"
   xmlns:svg="http://www.w3.org/2000/svg">
  <defs
     id="defs13" />
  <sodipodi:namedview
     id="namedview11"
     pagecolor="#ffffff"
     bordercolor="#666666"
     borderopacity="1.0"
     inkscape:pageshadow="2"
     inkscape:pageopacity="0.0"
     inkscape:pagecheckerboard="0" />
  <g
     id="Layer1000"
     transform="translate(-23.8989,-47.9999)">
    <path
       d="m 235.3011,181.8997 v -2.4087 c -1.1364,-2.3961 -0.6942,-4.7027 -4.6421,-7.5822 -5.0395,-3.6758 -12.1528,-5.0111 -18.4885,-5.8269 -1.874,-0.2413 -3.6897,-0.4255 -5.5865,-0.5847 -1.423,-0.1192 -4.5512,-0.1542 -5.6749,-0.4541 -0.5287,-1.0641 -1.1123,-5.5989 -1.4441,-7.2044 -4.0286,-19.4984 -11.7077,-38.8145 -22.5548,-55.1483 l -5.4463,-7.4119 C 154.5881,74.2364 125.2198,60.468 95.7837,63.7237 c -9.9083,1.0959 -18.5578,4.177 -26.013,8.4795 -3.2197,1.8582 -7.3082,4.6182 -9.9228,7.3393 -1.0237,1.0654 -2.2192,2.0072 -3.2084,3.1396 l -3.1249,3.5635 c -0.6502,0.8124 -1.2219,1.6749 -1.9573,2.475 -3.7318,-0.1848 -6.5923,-0.4635 -8.3585,2.3626 -1.5437,2.4702 -1.8179,6.2043 -1.5014,9.5824 0.1506,1.6084 0.4485,3.1377 0.8623,4.6071 0.3718,1.3204 -0.4953,3.0252 -0.8278,4.4401 -3.8458,16.3623 2.0841,30.6964 17.0243,36.4067 -1.0276,5.4262 -2.5114,11.0399 -3.5487,16.5334 -0.1702,0.9011 -0.3633,1.8385 -0.5277,2.774 -0.2507,1.4267 -0.0332,1.593 -1.1324,2.2413 -4.2696,2.5181 -8.2931,5.046 -12.1626,7.9249 -13.1334,9.7716 -12.4193,16.869 -0.7644,28.5049 1.1046,1.1027 5.7774,5.6218 6.1966,7.3862 -0.2649,0.44 -0.7598,0.9768 -1.0847,1.3968 -1.1453,1.4804 -2.406,2.9694 -2.9551,4.9698 -0.846,3.0818 1.1508,5.3619 5.024,4.3116 -0.9071,16.1691 -1.5601,32.252 -1.672,48.5144 -0.0142,2.0663 -0.424,4.0457 1.1557,4.9818 1.7686,1.0478 3.3461,-0.4827 3.4139,-2.3297 0.1495,-4.0815 0.0899,-8.2416 0.184,-12.3414 0.7203,-31.3804 2.0001,-56.045 6.9598,-87.0529 0.282,-1.7629 0.7751,-3.7063 0.9969,-5.3485 0.29,-2.1469 3.3871,-18.7639 4.345,-20.8941 1.3442,0.1139 3.796,0.9082 5.2998,1.2203 5.7805,1.1999 11.6422,1.7757 17.598,1.9191 16.3326,0.3931 36.3499,-2.8078 49.3399,-12.8002 5.6767,-4.3667 6.6141,-7.0953 8.1109,-8.4571 0.5536,0.9688 0.9186,1.9684 2.2891,2.1194 1.3052,0.1439 2.3593,-0.7383 2.5549,-1.8468 0.2068,-1.1714 -0.69,-2.3032 -1.1981,-3.0609 -0.7594,-1.1324 -1.181,-1.5701 -1.9984,-2.4085 -0.9559,-0.9802 -4.2843,-2.799 -6.3561,-2.3287 -1.0825,0.2457 -1.9652,1.2523 -1.656,2.735 0.3365,1.6143 1.2752,1.3804 2.49,1.9636 -0.4301,1.2573 -3.3675,4.5087 -4.1345,5.2191 -4.9744,4.6079 -11.2156,7.773 -18.0123,9.9936 -10.0406,3.2804 -21.6098,4.6926 -33.0127,4.2371 -10.1066,-0.4038 -22.9854,-2.473 -29.833,-7.4109 -3.4098,-2.4588 -6.2902,-5.5909 -8.0773,-10.5952 -0.8516,-2.3846 -1.3459,-5.1749 -1.4139,-7.9605 -0.0495,-2.0315 0.1445,-7.0353 0.9213,-8.6231 2.2565,1.1001 2.1845,2.4725 8.9354,3.9235 3.569,0.7671 8.0107,1.2775 11.7287,0.7009 4.1871,-0.6493 6.0693,-2.611 7.7423,-5.2982 1.228,-1.9727 3.5952,-6.4188 4.1105,-8.9207 l 8.9308,0.7531 c -0.1661,5.8551 2.1461,11.8061 4.9595,15.1037 2.8965,3.3948 9.3514,4.6924 15.4271,4.8379 5.5989,0.134 11.8809,-0.5799 15.1653,-5.1088 2.0294,-2.7982 4.9256,-10.8549 4.9875,-15.2915 l 9.5143,-1.9301 c 1.5214,-0.388 3.0401,-0.8482 4.4988,-1.3056 1.3681,-0.4292 3.1405,-1.162 4.6457,-1.2668 0.2446,0.5818 0.6896,1.1373 1.0821,1.7367 0.4473,0.6831 0.6679,1.2064 1.4699,1.5198 1.7487,0.6834 3.4074,-0.7122 3.1639,-2.4467 -0.1118,-0.7964 -1.7299,-3.0764 -2.1706,-3.6553 -0.9196,-1.2079 -2.0906,-1.985 -4.3092,-1.7257 -2.6193,0.3061 -6.5473,1.8895 -9.2213,2.6112 -2.9052,0.7841 -6.9293,1.6646 -10.0401,1.8752 -2.7797,-3.956 -14.2927,-2.5669 -19.8425,-2.8353 -3.5593,-0.1721 -7.3891,-0.7013 -10.9227,-0.5987 -1.7014,0.0495 -3.4183,0.243 -4.7892,0.8947 -1.6067,0.7638 -1.9911,1.4217 -2.8263,2.9868 -1.7374,-0.0519 -7.7658,-0.2926 -8.9667,-0.8073 -1.1324,-1.0907 1.1979,-4.247 -9.3665,-5.8182 -3.3761,-0.5021 -10.4999,-0.8972 -13.2519,-1.9112 1.18,-2.296 5.6001,-6.1306 7.8396,-8.1657 2.7623,-2.5102 6.3067,-4.6667 9.6925,-6.5096 7.0204,-3.8211 16.1212,-6.3578 25.2148,-6.9533 14.3911,-0.9424 27.6186,2.1477 40.0968,8.0541 3.5316,1.6717 7.4763,3.8726 10.3161,5.8901 l 6.8878,5.0966 c 0.7728,0.6003 1.4235,1.3159 2.1578,1.8905 2.4434,1.9119 4.3778,4.4106 6.1317,6.0247 2.5141,2.3134 6.9825,8.5561 8.7109,11.3723 6.2815,10.2351 11.7684,20.8406 15.7422,32.7031 2.7326,8.1569 5.4222,17.2153 6.5445,25.8452 -1.8393,-0.058 -11.5208,-0.6312 -12.9136,-0.2798 -1.0567,0.2665 -1.9457,1.3991 -1.612,2.8181 0.5563,2.3654 4.4634,1.7334 6.8812,1.8124 2.3283,0.0761 6.3045,-0.0466 8.416,0.3391 0.2174,2.6969 0.6821,5.4673 0.9496,8.2365 2.8104,29.0886 1.0609,59.8057 -0.5359,89.0017 -0.2475,4.5243 3.5002,4.1446 4.359,2.0868 0.6413,-1.5363 1.2533,-21.9274 1.4246,-26.2264 0.1079,-2.7034 0.0419,-6.3944 0.3807,-8.9622 2.0718,2.2377 3.1366,4.316 6.2321,5.5313 5.6855,2.232 10.9959,-2.4754 6.5915,-6.598 l -1.5546,-1.4387 c -1.9313,-1.5189 -7.1225,-4.9078 -9.2203,-5.7244 0.6873,-2.9031 12.9705,-16.7028 16.2361,-20.5242 4.2517,-4.9753 10.5551,-12.716 12.7101,-19.3542 0.3009,-0.927 0.6252,-3.1244 0.871,-3.697 z m -31.4963,37.2898 c 0.4179,-0.3793 0.9501,-1.1668 1.3671,-1.7187 l 3.709,-4.5737 c 0.3092,-0.3716 0.5279,-0.5515 0.8331,-0.9299 0.4627,-0.5738 1.0065,-1.2216 1.4684,-1.7045 0.3734,-0.3904 0.4013,-0.454 0.716,-0.8641 l 3.9197,-4.5318 c 3.3046,-3.8849 8.7484,-10.4982 11.4352,-14.9956 4.3691,-7.3132 5.668,-12.8922 -3.1229,-16.3658 -3.2976,-1.3031 -6.84,-2.032 -10.5883,-2.6007 -3.2256,-0.4893 -8.8443,-1.2365 -12.0008,-1.1126 0.1046,2.204 0.9565,8.3709 1.2096,11.5705 0.6667,8.4333 0.9707,16.3852 1.0692,24.8365 0.0478,4.1096 -0.2782,9.0261 -0.0153,12.9904 z m -154.89,-13.0051 c 0.0547,-0.0813 0.0741,-0.0637 0.1552,-0.3617 l 1.8335,-16.3402 c 0.6636,-5.4338 1.7146,-10.8819 2.3722,-16.2049 -1.5171,0.6753 -8.1558,5.2288 -9.3192,6.1195 -8.2818,6.34 -9.822,9.5622 -4.4833,16.6849 1.5364,2.0497 6.2361,6.6144 8.48,8.9624 0.4019,0.4205 0.4479,0.6255 0.9616,1.14 z"
       style="fill:#000000;fill-rule:evenodd"
       id="path2" />
    <path
       d="m 23.8989,59.6359 v 0.9258 l 0.1651,0.257 c 0.9946,1.5434 2.09,1.695 4.2416,2.857 l 9.7046,5.0949 c 0.8538,0.4555 1.632,0.983 2.7717,0.5192 0.799,-0.3253 1.4561,-1.1357 1.3948,-2.2488 -0.1001,-1.8191 -2.4843,-2.5526 -3.9968,-3.3735 l -9.6995,-5.0982 c -2.7808,-1.5 -3.3874,-1.0851 -4.5815,1.0666 z"
       style="fill:#000000;fill-rule:evenodd"
       id="path4" />
    <path
       d="m 40.5634,47.9999 h -1.2925 c -2.6079,1.953 -1.8399,2.3984 0.2864,7.5993 0.5376,1.3147 1.023,2.5531 1.5639,3.897 0.599,1.4886 0.8528,2.8806 2.6942,2.9023 1.5186,0.018 2.6583,-1.376 2.2038,-3.0408 L 42.8306,51.4356 C 41.8584,49.11 42.3903,49.4511 40.5634,47.9999 Z"
       style="fill:#000000;fill-rule:evenodd"
       id="path6" />
  </g>
</svg>
