<?xml version="1.0" encoding="UTF-8" standalone="no"?>
<svg
   version="1.1"
   width="52.284504"
   height="61.440899"
   id="svg4"
   viewBox="0 0 52.284504 61.440898"
   sodipodi:docname="2e55ad15cc46c13b18cdf0473d59ce2a.cdr"
   xmlns:inkscape="http://www.inkscape.org/namespaces/inkscape"
   xmlns:sodipodi="http://sodipodi.sourceforge.net/DTD/sodipodi-0.dtd"
   xmlns="http://www.w3.org/2000/svg"
   xmlns:svg="http://www.w3.org/2000/svg">
  <defs
     id="defs8" />
  <sodipodi:namedview
     id="namedview6"
     pagecolor="#ffffff"
     bordercolor="#666666"
     borderopacity="1.0"
     inkscape:pageshadow="2"
     inkscape:pageopacity="0.0"
     inkscape:pagecheckerboard="0" />
  <path
     d="M 2.7944016,19.6835 H 13.010202 V 13.132 c 0,-7.2527 5.8796,-13.132 13.1321,-13.132 7.2524,0 13.132,5.8793 13.132,13.132 0,7.0674 -0.0048,2.9747 -0.0062,6.5515 h 10.222 c 0.8212,0 1.5282,0.3152 2.0769,0.9261 0.5491,0.6108 0.7872,1.347 0.6999,2.1636 l -3.4435,32.1795 c -0.3966,3.7063 -3.4917,6.4882 -7.2193,6.4882 h -30.9237 c -3.7276004,0 -6.8227004,-2.7819 -7.2193004,-6.4882 L 0.01760162,22.7732 c -0.0873,-0.8166 0.1508,-1.5528 0.6996,-2.1636 C 1.2663016,19.9987 1.9732016,19.6835 2.7944016,19.6835 Z m 34.0367004,4.0303 c 1.4267,0 2.583,1.1565 2.583,2.5829 0,1.4267 -1.1563,2.5829 -2.583,2.5829 -1.4264,0 -2.5829,-1.1562 -2.5829,-2.5829 0,-1.4264 1.1565,-2.5829 2.5829,-2.5829 z m -21.3777,0 c 1.4264,0 2.5829,1.1565 2.5829,2.5829 0,1.4267 -1.1565,2.5829 -2.5829,2.5829 -1.4267,0 -2.583,-1.1562 -2.583,-2.5829 0,-1.4264 1.1563,-2.5829 2.583,-2.5829 z m 1.8754,-4.0303 h 17.621 c 0.0017,-5.1494 0.0059,-0.0236 0.0059,-6.5515 0,-4.8687 -3.9447,-8.8134 -8.8134,-8.8134 -4.8688,0 -8.8135,3.9447 -8.8135,8.8134 z"
     style="fill:#ffffff;fill-rule:evenodd"
     id="path2" />
</svg>
