<?xml version="1.0" encoding="UTF-8" standalone="no"?>
<svg
   version="1.1"
   width="156.00044"
   height="69.528999"
   id="svg14"
   viewBox="0 0 156.00044 69.528999"
   sodipodi:docname="97ff0b03a4daf8dd244dc1a3dbd2cf6e.cdr"
   xmlns:inkscape="http://www.inkscape.org/namespaces/inkscape"
   xmlns:sodipodi="http://sodipodi.sourceforge.net/DTD/sodipodi-0.dtd"
   xmlns="http://www.w3.org/2000/svg"
   xmlns:svg="http://www.w3.org/2000/svg">
  <defs
     id="defs18" />
  <sodipodi:namedview
     id="namedview16"
     pagecolor="#ffffff"
     bordercolor="#666666"
     borderopacity="1.0"
     inkscape:pageshadow="2"
     inkscape:pageopacity="0.0"
     inkscape:pagecheckerboard="0" />
  <path
     d="m 100.54675,67.4305 c -0.730604,0.6021 -1.550104,1.0803 -2.427604,1.4346 -1.0275,0.4152 -2.1234,0.5937 -3.2289,0.5937 h -0.2118 c -0.0363,0 -0.0727,-7e-4 -0.1091,-0.002 -1.4832,-0.0531 -2.798,-0.6888 -3.8504,-1.7191 -0.005,-0.005 -0.01,-0.009 -0.014,-0.0138 -0.4097,0.2895 -0.8475,0.5381 -1.3072,0.7437 -0.8845,0.396 -1.8375,0.5673 -2.8036,0.5673 -1.2621,0 -2.4791,-0.2936 -3.5966,-0.8816 -0.002,-0.001 -0.005,-0.002 -0.007,-0.004 -0.5508,0.5268 -1.2968,0.8502 -2.1151,0.8502 h -3.6714 c -1.0832,0 -2.0502,-0.5433 -2.6138,-1.468 -0.0309,-0.0506 -0.0614,-0.1017 -0.0913,-0.153 -0.0969,0.0764 -0.1957,0.1509 -0.2958,0.2237 -0.8027,0.5837 -1.6967,1.0228 -2.6355,1.341 -1.0723,0.3636 -2.2002,0.5153 -3.3302,0.5153 -1.5403,0 -3.063,-0.3096 -4.3885,-1.1218 -0.2739,-0.1679 -0.5374,-0.3508 -0.7891,-0.5485 -0.6328,0.4468 -1.3202,0.8099 -2.0441,1.0915 -1.0312,0.4009 -2.1236,0.5788 -3.2278,0.5788 -1.5128,0 -2.9408,-0.457 -4.0913,-1.4574 -0.2206,-0.1917 -0.4283,-0.3953 -0.6233,-0.6095 -0.663,0.4832 -1.388,0.8723 -2.1541,1.1704 -1.031,0.4007 -2.1236,0.5787 -3.2276,0.5787 -1.5647,0 -2.9769,-0.6203 -4.0301,-1.7787 -0.1993,-0.219 -0.3832,-0.4493 -0.5532,-0.6888 -0.2515,0.2908 -0.5263,0.5629 -0.8246,0.8138 -0.8317,0.6994 -1.7858,1.2167 -2.8177,1.5548 -0.9927,0.3252 -2.0264,0.4872 -3.0709,0.4872 -1.2527,0 -2.4825,-0.2328 -3.6565,-0.6667 -1.3017,-0.4813 -2.4527,-1.2445 -3.4326,-2.2242 -1.0671,-1.0671 -1.837,-2.3719 -2.3824,-3.7722 -0.6404,-1.6445 -0.8619,-3.4323 -0.8619,-5.1882 v -0.353 c 0,-0.8631 0.3399,-1.6461 0.9702,-2.2357 0.0287,-0.0269 0.0578,-0.0532 0.0872,-0.0787 -0.3272,-0.7555 -0.4926,-1.5702 -0.4926,-2.416 0,-0.2193 0.0081,-0.438 0.0248,-0.6556 H 6.0994459 c -1.3365,0 -2.3665,-0.6843 -3.059,-1.7876 -0.4565,-0.7272 -0.6901,-1.4857 -0.9819,-2.2821 -0.6592,-1.7986 -1.2685,-3.6149 -1.8771,-5.4312 -0.4458,-1.3304 -0.054,-2.7977 0.998,-3.7218 0.838,-0.8255 1.6027,-1.7358 2.395,-2.605 2.1926,-2.4043 4.3752,-4.8171 6.5576001,-7.2307 8.346,-9.2296 16.6712,-18.478 24.996,-27.7269 C 35.802346,0.4043 36.710446,0 37.718346,0 h 16.4244 c 2.1813,0 3.0498,1.4587 3.6642,3.266 0.316,0.9288 0.6052,1.8664 0.8938,2.8041 1.0994,3.5742 2.1449,7.1647 3.1887,10.7555 0.278,0.7701 0.4997,1.5582 0.7435,2.3394 0.6082,1.9494 1.2091,3.9008 1.81,5.8525 1.1127,3.6137 2.2217,7.2287 3.3286,10.8441 3.7781,-8.1384 7.558,-16.276 11.3699,-24.3988 1.0405,-2.2174 2.0821,-4.4343 3.1377,-6.6447 0.4827,-1.0104 0.9403,-2.0339 1.4811,-3.0152 C 84.382646,0.6741 85.523446,0 86.812446,0 h 21.549004 c 1.4649,0 2.5578,0.7812 3.2036,2.0542 0.4215,0.8305 0.5845,1.6888 0.7912,2.5849 0.4378,1.8972 0.8102,3.8086 1.1813,5.7198 0.0836,0.2852 0.1471,0.5733 0.2144,0.8628 0.1858,0.7991 0.3625,1.6 0.5395,2.4011 0.2549,1.1537 0.508,2.3076 0.7598,3.462 L 132.07475,0.955 C 132.73605,0.3283 133.56045,0 134.47165,0 h 18.0387 c 1.157,0 2.1907,0.5381 2.8544,1.4859 0.6622,0.9457 0.8152,2.1053 0.4206,3.1902 -0.1415,0.3892 -0.3227,0.7569 -0.4938,1.1329 -0.3401,0.749 -0.6841,1.4959 -1.0283,2.243 -1.305,2.8321 -2.618,5.6603 -3.9313,8.4886 -5.0804,10.9424 -10.1751,21.878 -15.2692,32.8141 -0.3462,0.9883 -1.0967,1.7485 -2.0293,2.2154 -0.4956,0.2481 -1.0055,0.3686 -1.5598,0.3686 h -1.6683 c 0.0161,0.2535 0.0238,0.5075 0.0238,0.7613 0,1.4423 -0.9917,2.6708 -2.3827,2.9851 0.5497,0.5679 1.0441,1.1876 1.4672,1.8563 0.6736,1.0651 1.0212,2.2649 1.0212,3.5252 0,1.256 -0.2106,2.5017 -0.7263,3.6524 -0.4787,1.0676 -1.1621,2.0136 -2.0592,2.768 -0.8317,0.6994 -1.7858,1.2167 -2.8177,1.5548 -0.9927,0.3252 -2.0264,0.4872 -3.0709,0.4872 -1.2527,0 -2.4825,-0.2328 -3.6565,-0.6667 -1.3017,-0.4813 -2.4527,-1.2445 -3.4326,-2.2242 -1.0671,-1.0671 -1.8371,-2.3719 -2.3824,-3.7722 -0.6404,-1.6445 -0.8619,-3.4323 -0.8619,-5.1882 V 57.597 h -1.5654 c 0.006,0.0926 0.012,0.1853 0.019,0.278 0.0476,0.6447 0.1163,1.2881 0.1966,1.9297 0.1019,0.816 0.218,1.6305 0.3417,2.4436 0.1661,1.0922 0.3186,2.1864 0.4662,3.2811 0.1198,0.8886 -0.139,1.7492 -0.7293,2.424 -0.5919,0.6766 -1.4054,1.0461 -2.3044,1.0461 h -4.1304 c -1.1342,0 -2.1419,-0.6059 -2.6746,-1.5693 z M 92.589246,46.1236 c 0.7082,-0.3173 1.4594,-0.5126 2.235,-0.5987 -0.1876,-0.8883 -0.362,-1.7758 -0.5315,-2.6551 -0.0172,-0.0744 -0.0341,-0.1489 -0.0513,-0.2235 -0.5523,1.1582 -1.1029,2.3175 -1.6522,3.4773 z m -53.4626,-17.1858 c -1.7444,2.3209 -3.4901,4.6409 -5.2361,6.9607 h 6.6318 c -0.4668,-2.32 -0.9365,-4.6394 -1.3957,-6.9607 z"
     style="fill:#ffffff;fill-rule:evenodd"
     id="path2" />
  <path
     d="m 60.433646,17.3009 c 0.2721,0.7467 0.5017,1.5629 0.7381,2.3202 0.6074,1.9476 1.2081,3.8974 1.8083,5.847 2.2916,7.4428 4.5677,14.8905 6.843,22.338 0.3021,0.9889 -0.2154,2.0386 -1.1837,2.4013 l -0.2052,0.0769 c -0.2301,0.0861 -0.44,0.124 -0.6855,0.124 H 6.0994459 c -1.6804,0 -2.1521,-1.8334 -2.6038,-3.0657 -0.6534,-1.7826 -1.2595,-3.5906 -1.8629,-5.3908 -0.2601,-0.7763 -0.0144,-1.6027 0.5847,-2.1094 0.8422,-0.8255 1.6926,-1.8275 2.4881,-2.6996 2.1937,-2.4059 4.3781,-4.8206 6.5618001,-7.2355 8.3467,-9.2306 16.6729,-18.4799 24.9983,-27.7296 0.3842,-0.4267 0.8784,-0.6468 1.4527,-0.6468 h 16.4244 c 1.4642,0 1.8574,1.1761 2.2152,2.228 0.3105,0.9135 0.5961,1.8394 0.8798,2.7614 1.1014,3.581 2.15,7.1828 3.1959,10.7806 z m 51.616004,-6.5745 c 0.0854,0.2762 0.1471,0.5657 0.2115,0.8423 0.1844,0.7934 0.3602,1.5894 0.5358,2.3846 0.45,2.0357 0.8936,4.0732 1.3354,6.111 l 18.9951,-17.9978 c 0.3771,-0.3573 0.8244,-0.5356 1.3442,-0.5356 h 18.0387 c 0.6576,0 1.2235,0.2945 1.6006,0.8332 0.3774,0.5388 0.4608,1.1711 0.236,1.7892 -0.1223,0.3363 -0.3004,0.6963 -0.4488,1.023 -0.339,0.7463 -0.6819,1.4909 -1.0249,2.2353 -1.3044,2.8307 -2.617,5.6579 -3.9295,8.4848 -5.0922,10.9679 -10.1991,21.9291 -15.3049,32.8905 -0.1975,0.6264 -0.68,1.1091 -1.2904,1.4147 -0.2845,0.1423 -0.5569,0.2067 -0.8748,0.2067 h -16.8857 c -0.6685,0 -1.2436,-0.305 -1.6183,-0.8587 -0.3749,-0.5537 -0.4446,-1.2007 -0.1962,-1.8215 0.6432,-1.6081 1.4558,-3.2676 2.1756,-4.8472 0.4816,-1.0572 0.9645,-2.1139 1.4484,-3.1702 l -10.7411,10.1629 c -0.3771,0.3569 -0.8239,0.5347 -1.3433,0.5347 h -5.124704 c -0.685,0 -1.2737,-0.3213 -1.6441,-0.8976 -0.3894,-0.6056 -0.6407,-1.7455 -0.8081,-2.4495 -0.3571,-1.5012 -0.6599,-3.0246 -0.946,-4.5071 -0.3426,-1.4972 -0.6913,-3.0082 -1.0305,-4.5257 -1.8084,3.7424 -3.5847,7.5022 -5.3603,11.2604 -0.3306,0.6999 -0.993,1.1195 -1.767,1.1195 h -14.0416 c -1.4,0 -1.9794,-1.1559 -2.2999,-2.2863 -0.2484,-0.8768 -0.4235,-1.807 -0.5837,-2.7058 -0.4595,-1.7405 -0.9166,-3.4854 -1.3383,-5.2355 -0.17,-0.7048 -0.4997,-1.9003 -0.4997,-2.6165 0,-0.2978 0.0563,-0.5527 0.1817,-0.8228 3.8133,-8.2147 7.6287,-16.4294 11.4762,-24.6281 1.0391,-2.2142 2.0793,-4.4283 3.1333,-6.6353 0.4601,-0.9634 0.9259,-2.0025 1.4405,-2.936 0.353,-0.6405 0.9803,-1.0111 1.7116,-1.0111 h 21.549004 c 1.8793,0 2.1894,2.0924 2.5033,3.4527 0.4384,1.9001 0.8131,3.8278 1.1849,5.7428 z M 39.969846,25.267 c -0.3629,0.4836 -0.7261,0.967 -1.0893,1.4504 -2.6838,3.5722 -5.3708,7.142 -8.0581,10.7117 h 11.5687 c -0.8104,-4.0461 -1.6419,-8.1031 -2.4213,-12.1621 z"
     style="fill:#3b3486;fill-rule:evenodd"
     id="path4" />
  <path
     d="m 54.142446,3.4857 c 0.1536,0 1.6398,4.8169 4.4328,14.4258 0.2563,0.6917 3.3823,10.8383 9.3779,30.4657 l -0.205,0.0768 H 6.0994459 c -0.1539,0 -1.025,-2.3828 -2.6135,-7.1232 0.2049,-0.1026 11.6070001,-12.7091 34.2323001,-37.8451 z m -13.1958,17.193 c -0.1537,0.2562 -4.8427,6.4825 -14.0415,18.7047 h 30.3889 v -0.0768 c -8.6091,-1.1019 -12.9138,-1.7425 -12.9138,-1.8961 -1.6912,-8.4555 -2.793,-14.0414 -3.2797,-16.7318 z m 45.8651,-17.193 h 21.549004 c 0.2049,0 0.7942,2.5878 1.7937,7.738 0.0513,0 0.9737,4.2021 2.7927,12.6066 h 0.0513 l 21.4722,-20.3446 h 18.0385 c -0.2049,0.5635 -7.1231,15.4505 -20.7289,44.6607 0,0.1026 -0.1026,0.205 -0.3075,0.3076 h -16.8854 c 0.2562,-0.6407 2.844,-6.3545 7.8148,-17.1162 l -18.0899,17.1162 h -5.124404 c -0.2308,-0.3586 -0.743,-2.4599 -1.4862,-6.3031 -1.1019,-4.8172 -1.8193,-8.1227 -2.1779,-9.993 -0.6661,1.1015 -3.2797,6.5338 -7.8919,16.2961 h -14.0415 c -0.2304,0 -0.5638,-1.1532 -0.9737,-3.4591 -1.2041,-4.561 -1.7934,-7.0206 -1.7934,-7.4308 9.9671,-21.4719 15.2968,-32.8229 15.9885,-34.0784 z"
     style="fill:#ffffff;fill-rule:evenodd"
     id="path6" />
  <path
     d="m 114.70835,48.1839 c 0.3031,-0.3455 0.6396,-0.6624 1.0086,-0.948 0.77,-0.5957 1.6301,-1.0459 2.5532,-1.3537 0.9221,-0.3071 1.8778,-0.4666 2.8493,-0.4666 0.8805,0 1.7492,0.1355 2.5844,0.4137 0.8674,0.2891 1.6502,0.7424 2.3334,1.3496 0.7204,0.6407 1.2644,1.4278 1.6535,2.3074 0.4466,1.0084 0.6077,2.1177 0.6077,3.214 0,0.7537 -0.5338,1.3847 -1.277,1.5094 l -3.1036,0.5214 c 0.0667,0.0474 0.1336,0.0947 0.2007,0.1419 0.6784,0.4775 1.3241,1.0016 1.9239,1.5747 0.6,0.5733 1.1338,1.2108 1.5776,1.9123 0.5193,0.821 0.7842,1.7356 0.7842,2.7069 0,1.0382 -0.1659,2.0744 -0.5926,3.0264 -0.3841,0.857 -0.9267,1.6163 -1.6474,2.2224 -0.6825,0.5738 -1.4626,0.9944 -2.3089,1.2717 -0.8401,0.275 -1.7106,0.4113 -2.5946,0.4113 -1.0726,0 -2.1207,-0.2 -3.1257,-0.5718 -1.0949,-0.4047 -2.0567,-1.0468 -2.8811,-1.8709 -0.916,-0.916 -1.5707,-2.0441 -2.0385,-3.2453 -0.569,-1.4612 -0.7575,-3.0734 -0.7575,-4.6327 v -0.353 c 0,-0.4394 0.1641,-0.8177 0.485,-1.1178 0.0551,-0.0517 0.1125,-0.0985 0.1715,-0.1405 h -3.786 c -0.7446,0 -1.3697,-0.5257 -1.5042,-1.2473 -0.0232,0.4466 -0.0363,0.8936 -0.0363,1.3406 0,0.6099 0.0214,1.2199 0.0664,1.8282 0.0497,0.6703 0.1209,1.3395 0.2043,2.0064 0.1035,0.8296 0.2217,1.6574 0.3473,2.4841 0.1648,1.0836 0.3164,2.1695 0.4626,3.2556 0.0613,0.4533 -0.0635,0.8675 -0.3645,1.2117 -0.3012,0.3444 -0.6949,0.5232 -1.1523,0.5232 h -4.1304 c -0.6644,0 -1.2296,-0.4027 -1.4468,-1.0308 -0.2273,-0.658 -0.4108,-1.3347 -0.5589,-2.0203 -0.0273,0.0414 -0.0551,0.0825 -0.0831,0.1236 -0.433,0.6348 -0.9494,1.202 -1.541004,1.6927 -0.6154,0.5103 -1.3047,0.9123 -2.0455,1.2115 -0.845,0.3412 -1.7473,0.4823 -2.6558,0.4823 h -0.2118 c -0.0192,0 -0.0354,-3e-4 -0.0544,-9e-4 -1.099,-0.0394 -2.0547,-0.5198 -2.8344,-1.2832 -0.3455,-0.3383 -0.6506,-0.7121 -0.9207,-1.1103 -0.1559,0.1758 -0.3218,0.3431 -0.4976,0.5012 -0.4759,0.4283 -1.0142,0.7743 -1.5986,1.0358 -0.687,0.3073 -1.429,0.4336 -2.1786,0.4336 -1.0149,0 -1.986,-0.233 -2.8838,-0.7055 -0.457,-0.2405 -0.8927,-0.5148 -1.3049,-0.8215 -0.0208,0.8253 -0.7001,1.4918 -1.5302,1.4918 h -3.6714 c -0.5491,0 -1.021,-0.2649 -1.3069,-0.734 -0.3833,-0.6287 -0.6721,-1.3277 -0.8908,-2.0522 -0.0195,0.0262 -0.0391,0.0522 -0.0588,0.0781 -0.4653,0.6154 -1.0208,1.1499 -1.6445,1.6034 -0.6778,0.4929 -1.4341,0.8611 -2.2267,1.1295 -0.9134,0.3099 -1.8768,0.4342 -2.8389,0.4342 -1.2524,0 -2.5089,-0.2346 -3.5887,-0.8963 -0.579,-0.3548 -1.0899,-0.7835 -1.525,-1.2841 -0.1785,0.174 -0.3652,0.3401 -0.56,0.4979 -0.6336,0.513 -1.3437,0.9123 -2.1028,1.2077 -0.8542,0.3319 -1.7586,0.4748 -2.673,0.4748 -1.143,0 -2.2174,-0.3257 -3.087,-1.0818 -0.565,-0.4914 -1.0197,-1.0749 -1.3758,-1.7225 -0.2656,0.2879 -0.5519,0.5563 -0.8579,0.804 -0.6337,0.513 -1.3435,0.9126 -2.1028,1.2077 -0.854,0.3322 -1.7587,0.4748 -2.6728,0.4748 -1.1338,0 -2.1347,-0.4384 -2.8976,-1.2777 -0.6793,-0.7469 -1.1379,-1.6633 -1.4513,-2.6168 -0.0409,-0.1245 -0.0798,-0.2497 -0.1166,-0.3755 -0.0771,0.2555 -0.17,0.5071 -0.28,0.7529 -0.3842,0.857 -0.9268,1.6163 -1.6475,2.2224 -0.6825,0.5738 -1.4626,0.9944 -2.3089,1.2717 -0.84,0.275 -1.7106,0.4113 -2.5946,0.4113 -1.0726,0 -2.1207,-0.2 -3.1257,-0.5718 -1.0949,-0.4047 -2.0567,-1.0468 -2.8811,-1.8709 -0.916,-0.916 -1.5706,-2.0441 -2.0384,-3.2453 -0.5691,-1.4612 -0.7576,-3.0734 -0.7576,-4.6327 v -0.353 c 0,-0.4394 0.1641,-0.8177 0.485,-1.1178 0.3209,-0.3001 0.7092,-0.4386 1.1476,-0.4095 l 0.2321,0.0156 c -0.1553,-0.1776 -0.3031,-0.362 -0.4423,-0.5534 -0.5722,-0.7867 -0.8576,-1.6929 -0.8576,-2.6653 0,-1.0929 0.2438,-2.1429 0.7717,-3.1031 0.4846,-0.8809 1.1277,-1.6405 1.9225,-2.2556 0.77,-0.5957 1.6301,-1.0459 2.5533,-1.3537 0.922,-0.3071 1.8777,-0.4666 2.8492,-0.4666 0.8805,0 1.7492,0.1355 2.5845,0.4137 0.8673,0.2891 1.6501,0.7424 2.3333,1.3496 0.3636,0.3232 0.6823,0.6839 0.9586,1.0749 l 0.9623,0.0519 c 0.0375,-0.3069 0.0762,-0.6133 0.1157,-0.92 0.082,-0.6361 0.1643,-1.2725 0.2475,-1.9087 0.0015,-0.0122 0.0029,-0.0224 0.0049,-0.0343 0.0852,-0.5555 0.1673,-1.1117 0.2432,-1.6685 0.104,-0.7634 0.7462,-1.3241 1.5166,-1.3241 h 4.6599 c 0.4789,0 0.8913,0.1973 1.1919,0.5702 0.3006,0.3729 0.4056,0.8176 0.3037,1.2856 -0.1259,0.5788 -0.2377,1.161 -0.3417,1.744 -0.003,0.0154 -0.005,0.0285 -0.009,0.0436 -0.1331,0.6387 -0.2501,1.2812 -0.3606,1.9239 -0.0376,0.219 -0.0744,0.4384 -0.1101,0.6578 l 0.5277,0.0251 c 0.4328,0.0206 0.7977,0.1973 1.082,0.5243 0.2843,0.3268 0.4091,0.7125 0.3695,1.1442 l -0.4235,4.6246 c -0.0725,0.7908 -0.7302,1.391 -1.5243,1.391 h -1.0373 c -0.0172,0.2138 -0.0332,0.4278 -0.0483,0.6418 -0.0407,0.5806 -0.0667,1.1639 -0.0667,1.746 0,0.424 0.0131,0.897 0.0755,1.3417 0.1966,-0.0836 0.3839,-0.1887 0.5444,-0.2897 0.6364,-0.4002 1.2364,-0.8547 1.7889,-1.3648 0.0113,-0.0104 0.021,-0.0189 0.0326,-0.0291 0.061,-0.0531 0.1215,-0.1069 0.1816,-0.1611 0.005,-0.7553 0.0335,-1.5108 0.0925,-2.2638 0.0551,-0.7064 0.1132,-1.4149 0.2011,-2.1182 0.087,-0.696 0.2011,-1.3876 0.3336,-2.0761 0.0567,-0.2943 0.1921,-0.5537 0.3826,-0.7582 -0.1354,-0.2387 -0.2082,-0.5162 -0.1973,-0.8095 0.0224,-0.6075 0.0531,-1.217 0.1121,-1.822 0.0397,-0.4083 0.0777,-0.8176 0.101,-1.2271 0.0147,-0.2556 0.033,-0.5216 0.033,-0.7776 0,-0.4378 0.1627,-0.8143 0.4813,-1.1144 0.3187,-0.2999 0.7042,-0.4397 1.1411,-0.4135 l 4.6949,0.2822 c 0.4606,0.0278 0.8459,0.2333 1.1254,0.5998 0.2796,0.3668 0.3756,0.7928 0.2805,1.2441 l -0.8118,3.8479 c -0.0144,0.0682 -0.033,0.1345 -0.0556,0.1984 0.0283,0.031 0.0554,0.0635 0.0818,0.0972 0.2999,0.384 0.3969,0.8404 0.2787,1.313 -0.2039,0.8158 -0.3869,1.6368 -0.5471,2.4621 -0.1465,0.7544 -0.2602,1.5162 -0.3542,2.2787 -0.0913,0.7392 -0.1473,1.4859 -0.1473,2.2307 0,0.3426 0.0181,0.7223 0.0845,1.0767 0.2811,-0.0871 0.5577,-0.2364 0.7822,-0.3777 0.3285,-0.2068 0.6476,-0.428 0.9557,-0.6639 -0.008,-0.2116 -0.012,-0.4233 -0.012,-0.6351 0,-1.0524 0.068,-2.1078 0.23,-3.148 0.1173,-0.7543 0.243,-1.5148 0.4052,-2.2608 0.004,-0.0201 0.008,-0.0373 0.0136,-0.0572 0.2443,-0.9469 0.6825,-1.8088 1.2951,-2.571 0.5874,-0.7304 1.2852,-1.3503 2.0828,-1.8432 0.7643,-0.4726 1.5851,-0.8398 2.4456,-1.0992 0.8608,-0.2595 1.7485,-0.4005 2.6482,-0.4005 0.7256,0 1.447,0.09 2.146,0.2872 0.7191,0.2032 1.3853,0.5341 1.9697,1.0014 0.0517,0.0414 0.1026,0.0836 0.1523,0.127 0.0832,-1.0032 0.1783,-2.0052 0.2816,-3.007 0.1722,-1.6735 0.3602,-3.3474 0.6086,-5.0113 0.1127,-0.7553 0.7503,-1.3049 1.5139,-1.3049 h 4.6246 c 0.4649,0 0.8649,0.1849 1.1661,0.539 0.301,0.3541 0.4192,0.7788 0.3447,1.2375 -0.1727,1.0613 -0.3352,2.1241 -0.4904,3.1878 -0.1411,0.9643 -0.2663,1.9313 -0.382,2.8992 0.9038,-0.439 1.873,-0.6971 2.8918,-0.6971 0.6631,0 1.3153,0.1112 1.936,0.346 0.6622,0.2506 1.2414,0.6463 1.7246,1.1638 0.4987,0.5345 0.8587,1.1722 1.1112,1.8554 0.0793,0.2149 0.145,0.4339 0.1984,0.6558 0.054,-0.1069 0.1098,-0.2129 0.1679,-0.318 0.5388,-0.976 1.2678,-1.8009 2.1882,-2.43 1.015,-0.6936 2.1836,-0.9908 3.4055,-0.9908 h 0.0707 c 1.1352,0 2.2538,0.2592 3.308,0.669 0.6821,0.265 1.256504,0.6727 1.717304,1.1975 0.0283,-0.3141 0.0574,-0.6283 0.088,-0.9424 0.0761,-0.7873 0.7322,-1.3828 1.5233,-1.3828 h 4.6245 c 0.4698,0 0.8741,0.1891 1.1751,0.5498 0.0122,0.0145 0.024,0.0294 0.0355,0.0441 1.2041,-0.5078 2.5155,-0.9469 3.5198,-0.9469 h 0.0355 c 0.9315,0 1.7943,0.3333 2.3593,1.0958 0.2036,0.275 0.3598,0.5779 0.4786,0.8958 z m -72.164504,9.8579 c -0.0131,-0.4271 -0.0192,-0.8545 -0.0192,-1.2818 0,-0.1252 0,-0.2504 0,-0.3756 h -1.1523 c -0.0994,0 -0.1959,-0.008 -0.289,-0.0253 0.0311,0.0296 0.0623,0.059 0.0933,0.0886 0.508,0.4854 0.9686,1.0167 1.3672,1.5941 z m -2.6169,-2.6703 c -0.0733,-0.2036 -0.0999,-0.423 -0.0791,-0.6554 l 0.011,-0.1206 -0.8067,0.1356 c 0.0666,0.0474 0.1335,0.0947 0.2006,0.1419 0.2285,0.1609 0.4536,0.327 0.6742,0.4985 z m 34.2428,2.2448 c -0.2746,0.277 -0.5566,0.5466 -0.8461,0.8083 -0.0131,0.012 -0.0244,0.0217 -0.0378,0.0333 -0.6669,0.5645 -1.3561,1.1028 -2.0608,1.6194 -0.016,0.0117 -0.0323,0.0233 -0.0488,0.0346 0.5017,-0.299 0.9858,-0.6278 1.445,-0.9892 0.5469,-0.4303 1.0635,-0.8981 1.5512,-1.3943 -9e-4,-0.0373 -0.002,-0.0748 -0.003,-0.1121 z m -3.1792,2.6043 c -0.4538,0.226 -0.9779,0.2115 -1.4342,-0.0511 -0.2169,-0.125 -0.3932,-0.2913 -0.5218,-0.4861 0.0192,0.3912 0.0757,0.7998 0.205,1.1584 0.5026,-0.0122 1.0068,-0.2106 1.4418,-0.4479 0.1037,-0.0565 0.2068,-0.1143 0.3092,-0.1733 z m 17.7223,-3.8974 c -0.5971,0.7114 -1.2692,1.3541 -2.0152,1.9107 -0.4201,0.3134 -0.8538,0.6077 -1.2987,0.8838 0.1112,0.1044 0.2239,0.2073 0.3383,0.3085 0.0149,0.0131 0.0273,0.0244 0.0416,0.0382 0.4203,0.4002 0.8759,0.7607 1.3633,1.0757 0.1472,0.0949 0.5029,0.3024 0.6875,0.3024 h 0.0269 c 0.2375,-0.0303 0.4398,-0.1211 0.6332,-0.2689 0.1612,-0.1227 0.3146,-0.2538 0.4608,-0.3924 -0.1731,-1.0485 -0.2508,-2.1107 -0.2508,-3.174 0,-0.2282 0.004,-0.4562 0.0131,-0.684 z"
     style="fill:#3b3486;fill-rule:evenodd"
     id="path8" />
  <path
     d="m 121.25495,66.4681 c -0.8708,0 -1.7356,-0.1587 -2.5945,-0.4765 -0.8592,-0.3177 -1.6356,-0.8237 -2.3298,-1.5179 -0.6942,-0.6942 -1.2592,-1.6002 -1.6946,-2.7179 -0.4354,-1.118 -0.6528,-2.4769 -0.6528,-4.077 v -0.3532 l 4.7653,0.3177 c 0.0706,0.9179 0.2177,1.7002 0.4414,2.3474 0.2233,0.6471 0.4765,1.1767 0.7588,1.5885 0.2823,0.4119 0.5706,0.7178 0.8649,0.9179 0.2942,0.1998 0.5706,0.2999 0.8294,0.2999 0.212,0 0.3883,-0.0765 0.5295,-0.2293 0.1411,-0.1531 0.2117,-0.4295 0.2117,-0.8297 v -0.1763 c -0.047,-0.6591 -0.2704,-1.2473 -0.6706,-1.7652 -0.4,-0.5176 -0.8941,-0.9941 -1.4826,-1.4295 -0.5882,-0.4354 -1.2118,-0.8648 -1.8708,-1.2883 -0.6588,-0.4238 -1.2708,-0.8533 -1.8355,-1.2887 -0.5649,-0.4354 -1.0355,-0.9119 -1.4122,-1.4295 -0.3764,-0.5179 -0.5646,-1.1061 -0.5646,-1.7651 0,-0.8705 0.1941,-1.6588 0.5825,-2.365 0.3883,-0.7061 0.894,-1.3002 1.5176,-1.7827 0.6237,-0.4824 1.3238,-0.8529 2.1005,-1.1117 0.7767,-0.2591 1.565,-0.3884 2.365,-0.3884 0.7296,0 1.4298,0.1117 2.1004,0.3354 0.6707,0.2233 1.2708,0.5706 1.8003,1.0411 0.5295,0.4709 0.953,1.065 1.2708,1.7828 0.3178,0.7177 0.4765,1.5825 0.4765,2.5945 l -4.6242,0.7767 c 0,-1.059 -0.153,-1.8357 -0.4589,-2.3298 -0.3059,-0.4944 -0.6236,-0.7413 -0.953,-0.7413 -0.3061,0 -0.5709,0.1823 -0.7943,0.5471 -0.2236,0.3648 -0.3353,0.9 -0.3353,1.6061 0,0.353 0.1823,0.7178 0.5471,1.0942 0.3648,0.3767 0.8118,0.7708 1.3413,1.1826 0.5295,0.4119 1.1121,0.8413 1.7473,1.2884 0.6355,0.4473 1.2178,0.9238 1.7473,1.4298 0.5295,0.506 0.9768,1.0471 1.3413,1.6237 0.3649,0.5765 0.5474,1.2061 0.5474,1.8884 0,0.9179 -0.1531,1.7181 -0.4589,2.4004 -0.3062,0.6826 -0.7178,1.2415 -1.2356,1.6767 -0.5177,0.4354 -1.1177,0.765 -1.8003,0.9884 -0.6823,0.2237 -1.3884,0.3353 -2.1178,0.3353 z M 80.766246,58.2434 c 0.3765,-0.2823 0.7765,-0.6117 1.2002,-0.9884 0.4235,-0.3765 0.8119,-0.7824 1.1648,-1.2178 0.3529,-0.4354 0.6471,-0.8943 0.8824,-1.3768 0.2356,-0.4824 0.3532,-0.9706 0.3532,-1.4649 0,-0.6117 -0.106,-0.9176 -0.3177,-0.9176 -0.1647,0 -0.3765,0.1823 -0.6356,0.5471 -0.2588,0.3648 -0.5352,0.8294 -0.8294,1.3944 -0.2942,0.5646 -0.6001,1.2001 -0.9179,1.906 -0.3177,0.7061 -0.6176,1.4119 -0.9,2.118 z m 13.0255,0.0706 c 0.4941,-0.3529 0.9414,-0.7532 1.3414,-1.2002 0.4,-0.447 0.7412,-0.9 1.0236,-1.3589 0.2826,-0.4589 0.506,-0.9063 0.6709,-1.3414 0.1647,-0.4354 0.2469,-0.8061 0.2469,-1.112 0,-0.2117 -0.047,-0.3883 -0.1411,-0.5295 -0.0941,-0.1412 -0.2472,-0.2118 -0.459,-0.2118 -0.0941,0 -0.1941,0.0117 -0.2999,0.0352 -0.106,0.0235 -0.2177,0.0589 -0.3353,0.106 -0.3532,0.1412 -0.6591,0.3764 -0.9179,0.7061 -0.2588,0.3294 -0.4765,0.7234 -0.6531,1.1823 -0.1763,0.459 -0.3058,0.9533 -0.3883,1.4826 -0.0822,0.5295 -0.1236,1.0649 -0.1236,1.6064 z m -57.397,8.1541 c -0.8708,0 -1.7357,-0.1587 -2.5946,-0.4765 -0.8591,-0.3177 -1.6356,-0.8237 -2.3298,-1.5179 -0.6942,-0.6942 -1.2591,-1.6002 -1.6945,-2.7179 -0.4354,-1.118 -0.6528,-2.4769 -0.6528,-4.077 v -0.3532 l 4.7653,0.3177 c 0.0706,0.9179 0.2177,1.7002 0.4413,2.3474 0.2234,0.6471 0.4766,1.1767 0.7589,1.5885 0.2823,0.4119 0.5706,0.7178 0.8648,0.9179 0.2943,0.1998 0.5706,0.2999 0.8295,0.2999 0.212,0 0.3883,-0.0765 0.5295,-0.2293 0.1411,-0.1531 0.2117,-0.4295 0.2117,-0.8297 v -0.1763 c -0.047,-0.6591 -0.2704,-1.2473 -0.6707,-1.7652 -0.3999,-0.5176 -0.894,-0.9941 -1.4825,-1.4295 -0.5882,-0.4354 -1.2118,-0.8648 -1.8709,-1.2883 -0.6587,-0.4238 -1.2707,-0.8533 -1.8354,-1.2887 -0.5649,-0.4354 -1.0355,-0.9119 -1.4122,-1.4295 -0.3764,-0.5179 -0.5647,-1.1061 -0.5647,-1.7651 0,-0.8705 0.1942,-1.6588 0.5826,-2.365 0.3883,-0.7061 0.894,-1.3002 1.5176,-1.7827 0.6236,-0.4824 1.3238,-0.8529 2.1005,-1.1117 0.7767,-0.2591 1.565,-0.3884 2.3649,-0.3884 0.7297,0 1.4298,0.1117 2.1005,0.3354 0.6707,0.2233 1.2708,0.5706 1.8003,1.0411 0.5295,0.4709 0.953,1.065 1.2708,1.7828 0.1219,0.2749 0.2202,0.5717 0.2953,0.8897 l 0.1106,-1.2251 2.6121,0.1412 c 0.0941,-0.8235 0.1882,-1.6002 0.2823,-2.3298 0.0944,-0.7294 0.1766,-1.3649 0.2472,-1.906 0.0941,-0.612 0.1766,-1.1767 0.2472,-1.6946 h 4.6596 c -0.1176,0.5414 -0.2353,1.1415 -0.3532,1.8003 -0.1176,0.5649 -0.2412,1.2237 -0.3705,1.9769 -0.1295,0.7531 -0.2531,1.5415 -0.3708,2.3649 l 2.2241,0.106 -0.4238,4.6242 h -2.4355 c -0.0706,0.7061 -0.1295,1.3944 -0.1766,2.065 -0.0471,0.6707 -0.0706,1.2887 -0.0706,1.8533 0,0.8944 0.0706,1.6237 0.2118,2.1887 0.1411,0.5646 0.3767,0.847 0.7061,0.847 0.6352,0 1.3178,-0.2294 2.0474,-0.6883 0.7294,-0.4589 1.4001,-0.9706 2.0121,-1.5355 0.2392,-0.2084 0.4759,-0.4281 0.71,-0.6594 -0.003,-0.1448 -0.004,-0.2897 -0.004,-0.4348 0,-0.8237 0.0292,-1.6121 0.0881,-2.3652 0.0587,-0.7529 0.1236,-1.4355 0.1942,-2.0472 0.0941,-0.7061 0.1999,-1.3652 0.3178,-1.9769 h 4.6593 c -0.2118,0.8473 -0.4,1.6943 -0.5647,2.5416 -0.1411,0.7296 -0.2647,1.5239 -0.3708,2.3828 -0.1057,0.8589 -0.1587,1.6647 -0.1587,2.4179 0,0.7532 0.0825,1.3884 0.2472,1.9063 0.1647,0.5176 0.4705,0.7764 0.9176,0.7764 0.6355,0 1.3181,-0.2293 2.0474,-0.6882 0.614,-0.3861 1.186,-0.8099 1.7167,-1.2711 -0.0386,-0.4385 -0.0576,-0.8796 -0.0576,-1.3235 0,-1.0355 0.0706,-2.0061 0.2118,-2.9123 0.1412,-0.906 0.2704,-1.6296 0.3883,-2.1708 0.1883,-0.7296 0.5236,-1.3943 1.0061,-1.9944 0.4824,-0.6001 1.0471,-1.1002 1.6942,-1.5004 0.6472,-0.4 1.3414,-0.7118 2.0826,-0.9354 0.7413,-0.2234 1.4769,-0.3354 2.2062,-0.3354 0.612,0 1.1886,0.0766 1.7297,0.2296 0.5415,0.1528 1.018,0.394 1.4298,0.7237 0.4116,0.3294 0.7413,0.7472 0.9882,1.2529 0.2472,0.506 0.3708,1.1004 0.3708,1.7827 0,0.4944 -0.0706,1.0004 -0.2118,1.518 -0.0941,0.4235 -0.3648,0.8824 -0.8118,1.3768 -0.4473,0.4941 -0.9179,0.9646 -1.412,1.4119 -0.612,0.5176 -1.271,1.0355 -1.9768,1.5531 0.0705,-0.659 0.1057,-1.3178 0.1057,-1.9769 0,-0.6352 -0.0292,-1.2413 -0.0882,-1.8178 -0.0586,-0.5766 -0.1352,-1.0766 -0.2293,-1.5001 -0.0941,-0.4238 -0.2061,-0.7591 -0.3353,-1.006 -0.1296,-0.2472 -0.2767,-0.3708 -0.4414,-0.3708 -0.1411,0 -0.2883,0.1236 -0.4413,0.3708 -0.1528,0.2469 -0.3235,0.6528 -0.5117,1.2177 -0.0706,0.2588 -0.159,0.6001 -0.2647,1.0236 -0.1061,0.4238 -0.2002,0.8884 -0.2824,1.3944 -0.0825,0.506 -0.159,1.0295 -0.2296,1.5709 -0.0706,0.5412 -0.1057,1.0707 -0.1057,1.5883 0,0.8473 0.1176,1.565 0.3529,2.1535 0.2353,0.5882 0.6823,0.8824 1.3414,0.8824 0.7061,0 1.4473,-0.2117 2.2237,-0.6355 0.7767,-0.4235 1.4945,-0.8941 2.1535,-1.412 0.7509,-0.5916 1.4692,-1.2605 2.1543,-2.0066 -0.0241,-0.6446 -0.0362,-1.3054 -0.0362,-1.9823 0,-1.7884 0.0586,-3.5827 0.1763,-5.383 0.1176,-1.8003 0.2588,-3.4418 0.4238,-4.9243 0.1646,-1.7178 0.3645,-3.3653 0.6,-4.9419 h 4.6242 c -0.1647,1.0119 -0.3294,2.0826 -0.4944,3.2122 -0.1411,0.9649 -0.2823,2.0474 -0.4235,3.2476 -0.1411,1.2002 -0.2707,2.4356 -0.3883,3.7063 0.5885,-0.9884 1.3238,-1.7353 2.2062,-2.2413 0.8827,-0.506 1.7592,-0.7591 2.63,-0.7591 0.4941,0 0.959,0.0824 1.3944,0.2471 0.4354,0.1647 0.8177,0.4235 1.1471,0.7767 0.3294,0.3529 0.5942,0.8 0.7943,1.3414 0.1998,0.5411 0.2999,1.1767 0.2999,1.906 0,0.9179 -0.2999,1.7592 -0.9,2.524 -0.6001,0.7648 -1.2651,1.4179 -1.9944,1.9593 -0.8473,0.6352 -1.8003,1.2118 -2.8594,1.7294 0.5885,0.6826 1.1886,1.2946 1.8003,1.8357 0.4941,0.4706 1.0236,0.8884 1.5886,1.2532 0.5646,0.3648 1.0706,0.5471 1.5179,0.5471 h 0.1057 c 0.5415,-0.0471 1.0355,-0.2412 1.4826,-0.5825 0.4473,-0.3413 0.8356,-0.7118 1.165,-1.1118 l 0.0136,-0.0161 -0.049,-0.2486 c -0.2118,-1.118 -0.3175,-2.2536 -0.3175,-3.4064 0,-1.0826 0.1057,-2.13 0.3175,-3.1419 0.212,-1.0117 0.5354,-1.912 0.9708,-2.7003 0.4354,-0.7883 1.0061,-1.4239 1.7122,-1.9063 0.7058,-0.4822 1.5531,-0.7234 2.5415,-0.7234 h 0.0706 c 0.847,0 1.7648,0.1882 2.7533,0.5646 0.7061,0.2824 1.2353,0.7767 1.588504,1.4826 0.3529,0.7061 0.5295,1.5179 0.5295,2.4358 0,1.2237 -0.3237,2.5239 -0.970804,3.9004 -0.6472,1.3768 -1.6413,2.5946 -2.9829,3.6536 -0.7059,0.5411 -1.3414,0.9179 -1.906,1.1296 0.3058,0.3059 0.6352,0.459 0.9884,0.459 0.6352,0 1.3178,-0.2297 2.0472,-0.6886 0.7296,-0.4586 1.4003,-0.9589 2.0123,-1.5001 0.729304,-0.6355 1.435504,-1.3649 2.117804,-2.1886 -0.2118,1.6001 -0.6237,3.0359 -1.2354,4.3067 -0.2588,0.5411 -0.5649,1.0706 -0.917804,1.5882 -0.353,0.5179 -0.7708,0.9768 -1.2532,1.3768 -0.4825,0.4 -1.0296,0.7237 -1.6413,0.9709 -0.612,0.2469 -1.3062,0.3705 -2.0829,0.3705 h -0.2117 c -0.6588,-0.0236 -1.2649,-0.3059 -1.8179,-0.847 -0.553,-0.5414 -1.0236,-1.2532 -1.4119,-2.1357 -0.1679,-0.3812 -0.3187,-0.7843 -0.4536,-1.2095 -0.0414,0.1165 -0.0842,0.2316 -0.129,0.3447 -0.1647,0.4235 -0.3707,0.8413 -0.6176,1.2529 -0.2472,0.4119 -0.5471,0.7767 -0.9003,1.0945 -0.3529,0.3177 -0.7529,0.5765 -1.2002,0.7764 -0.447,0.2001 -0.9646,0.3002 -1.5531,0.3002 -0.7767,0 -1.5001,-0.1766 -2.1708,-0.5295 -0.6709,-0.353 -1.2827,-0.7884 -1.8357,-1.3063 -0.553,-0.5176 -1.0471,-1.0706 -1.4825,-1.6588 -0.4354,-0.5885 -0.7943,-1.1296 -1.0766,-1.624 l -0.0354,0.2118 c 0,0.3297 0.047,0.7061 0.1411,1.1296 0.0941,0.4238 0.1942,0.8589 0.3002,1.3062 0.1057,0.447 0.2058,0.8824 0.2999,1.3059 0.0941,0.4238 0.1412,0.7886 0.1412,1.0945 v 0.0351 h -3.6712 c -0.5882,-0.9646 -0.9881,-2.3062 -1.2002,-4.024 -0.1264,-1.0256 -0.2148,-2.1019 -0.2658,-3.2287 -0.186,1.3516 -0.5446,2.569 -1.0755,3.6522 -0.2588,0.5179 -0.5706,1.0179 -0.9354,1.5003 -0.3649,0.4825 -0.8059,0.9119 -1.3238,1.2884 -0.5176,0.3764 -1.1237,0.6826 -1.8179,0.9178 -0.6942,0.2353 -1.4768,0.353 -2.3474,0.353 -1.1296,0 -2.0593,-0.2234 -2.7887,-0.6707 -0.7296,-0.447 -1.3002,-1.0296 -1.7121,-1.7473 -0.1701,-0.2965 -0.3192,-0.6083 -0.4473,-0.9349 -0.1253,0.2067 -0.2585,0.4122 -0.3997,0.6171 -0.3648,0.5296 -0.7943,0.9944 -1.2883,1.3944 -0.4944,0.4 -1.0591,0.7237 -1.6946,0.9709 -0.6352,0.2469 -1.3413,0.3705 -2.1178,0.3705 -0.8472,0 -1.5414,-0.2353 -2.0829,-0.7059 -0.5411,-0.4708 -0.9705,-1.0766 -1.2883,-1.8181 -0.2903,-0.6775 -0.4972,-1.4383 -0.6205,-2.2825 l -0.068,0.1469 c -0.2588,0.5414 -0.5707,1.0769 -0.9355,1.6061 -0.3645,0.5295 -0.7942,0.9944 -1.2883,1.3943 -0.4941,0.4003 -1.059,0.7237 -1.6943,0.9709 -0.6355,0.2472 -1.3413,0.3705 -2.118,0.3705 -0.7061,0 -1.2943,-0.2588 -1.7652,-0.7764 -0.4705,-0.5179 -0.847,-1.2062 -1.1293,-2.0651 -0.2826,-0.8588 -0.4768,-1.8473 -0.5825,-2.9653 -0.106,-1.1177 -0.159,-2.2884 -0.159,-3.5121 0,-0.3294 0,-0.6471 0,-0.953 0,-0.3061 0.0119,-0.6236 0.0354,-0.9533 h -2.7181 l 0.1893,-2.0959 -4.284,0.7194 c 0,-1.059 -0.1531,-1.8357 -0.4589,-2.3298 -0.3059,-0.4944 -0.6236,-0.7413 -0.953,-0.7413 -0.3062,0 -0.5709,0.1823 -0.7943,0.5471 -0.2236,0.3648 -0.3353,0.9 -0.3353,1.6061 0,0.353 0.1822,0.7178 0.5471,1.0942 0.3648,0.3767 0.8118,0.7708 1.3413,1.1826 0.5295,0.4119 1.112,0.8413 1.7473,1.2884 0.6355,0.4473 1.2178,0.9238 1.7473,1.4298 0.5295,0.506 0.9768,1.0471 1.3413,1.6237 0.3648,0.5765 0.5474,1.2061 0.5474,1.8884 0,0.9179 -0.1531,1.7181 -0.4589,2.4004 -0.3062,0.6826 -0.7178,1.2415 -1.2357,1.6767 -0.5176,0.4354 -1.1177,0.765 -1.8002,0.9884 -0.6823,0.2237 -1.3885,0.3353 -2.1178,0.3353 z m 66.821904,-0.5295 c -0.447,-1.2943 -0.7531,-2.8179 -0.9178,-4.5711 -0.1647,-1.7532 -0.2469,-3.4889 -0.2469,-5.2067 0,-1.0825 0.0235,-2.1121 0.0706,-3.0886 0.047,-0.9768 0.0941,-1.8417 0.1411,-2.5946 0.0706,-0.8708 0.1412,-1.671 0.2118,-2.4004 h 4.6241 c -0.047,0.2588 -0.0822,0.506 -0.1057,0.7413 -0.0235,0.2353 -0.059,0.4589 -0.106,0.6707 2.3768,-1.1767 4.0241,-1.7652 4.9419,-1.7652 h 0.0354 c 0.5177,0 0.8941,0.1591 1.1297,0.4768 0.2352,0.3175 0.394,0.7705 0.4765,1.359 0.0822,0.5882 0.1292,1.3059 0.1411,2.1532 0.0116,0.8472 0.0647,1.7886 0.1588,2.8238 h -4.4476 c -0.1179,-1.0116 -0.2061,-1.8294 -0.2648,-2.4531 -0.0589,-0.6236 -0.3237,-0.9354 -0.7942,-0.9354 -0.4003,0 -0.9649,0.2353 -1.6946,0.7058 -0.1176,0.8708 -0.1998,1.6532 -0.2469,2.3474 -0.047,0.6945 -0.0706,1.3473 -0.0706,1.9593 0,0.6588 0.0236,1.3059 0.0706,1.9415 0.0471,0.6352 0.1177,1.3297 0.2118,2.0826 0.0941,0.7531 0.2117,1.5945 0.3529,2.5239 0.1412,0.9295 0.2942,2.0061 0.4589,3.2298 z"
     style="fill:#f8e559;fill-rule:evenodd"
     id="path10" />
  <path
     d="m 54.397546,50.301 c 0.0236,-0.6355 0.0587,-1.2118 0.1058,-1.7297 0.047,-0.447 0.0824,-0.8764 0.106,-1.2883 0.0235,-0.4119 0.0351,-0.7002 0.0351,-0.8649 l 4.695,0.2824 -0.8118,3.8477 z"
     style="fill:#f8e559;fill-rule:evenodd"
     id="path12" />
</svg>
