<?xml version="1.0" encoding="UTF-8" standalone="no"?>
<svg
   version="1.1"
   width="152.94095"
   height="48.877399"
   id="svg6"
   viewBox="0 0 152.94095 48.877399"
   sodipodi:docname="09318df9c6cf5f9e07bcc19f8a078ce3.cdr"
   xmlns:inkscape="http://www.inkscape.org/namespaces/inkscape"
   xmlns:sodipodi="http://sodipodi.sourceforge.net/DTD/sodipodi-0.dtd"
   xmlns="http://www.w3.org/2000/svg"
   xmlns:svg="http://www.w3.org/2000/svg">
  <defs
     id="defs10" />
  <sodipodi:namedview
     id="namedview8"
     pagecolor="#ffffff"
     bordercolor="#666666"
     borderopacity="1.0"
     inkscape:pageshadow="2"
     inkscape:pageopacity="0.0"
     inkscape:pagecheckerboard="0" />
  <path
     d="m 58.903968,15.77 c 0.2721,0.7467 0.5017,1.5629 0.7381,2.3202 0.6074,1.9476 1.2081,3.8974 1.8083,5.847 2.2916,7.4428 4.5677,14.8905 6.843,22.338 0.3021,0.9889 -0.2154,2.0386 -1.1837,2.4013 l -0.2052,0.0769 c -0.2301,0.0861 -0.44,0.124 -0.6855,0.124 H 4.5697682 c -1.6804,0 -2.1521,-1.8334 -2.6038,-3.0657 -0.6534,-1.7826 -1.25950001,-3.5906 -1.86290001,-5.3908 -0.2601,-0.7763 -0.0144,-1.6027 0.5847,-2.1094 C 1.5299682,37.486 2.3803682,36.484 3.1758682,35.6119 c 2.1937,-2.4059 4.3781,-4.8206 6.5618,-7.2355 C 18.084368,19.1458 26.410568,9.8965 34.735968,0.6468 35.120168,0.2201 35.614368,0 36.188668,0 h 16.4244 c 1.4642,0 1.8574,1.1761 2.2152,2.228 0.3105,0.9135 0.5961,1.8394 0.8798,2.7614 1.1014,3.581 2.15,7.1828 3.1959,10.7806 z M 110.51997,9.1955 c 0.0854,0.2762 0.1471,0.5657 0.2115,0.8423 0.1844,0.7934 0.3602,1.5894 0.5358,2.3846 0.45,2.0357 0.8936,4.0732 1.3354,6.111 L 131.59777,0.5356 C 131.97487,0.1783 132.42217,0 132.94197,0 h 18.0387 c 0.6576,0 1.2235,0.2945 1.6006,0.8332 0.3774,0.5388 0.4608,1.1711 0.236,1.7892 -0.1223,0.3363 -0.3004,0.6963 -0.4488,1.023 -0.339,0.7463 -0.6819,1.4909 -1.0249,2.2353 -1.3044,2.8307 -2.617,5.6579 -3.9295,8.4848 -5.0922,10.9679 -10.1991,21.9291 -15.3049,32.8905 -0.1975,0.6264 -0.68,1.1091 -1.2904,1.4147 -0.2845,0.1423 -0.5569,0.2067 -0.8748,0.2067 h -16.8857 c -0.6685,0 -1.2436,-0.305 -1.6183,-0.8587 -0.3749,-0.5537 -0.4446,-1.2007 -0.1962,-1.8215 0.6432,-1.6081 1.4558,-3.2676 2.1756,-4.8472 0.4816,-1.0572 0.9645,-2.1139 1.4484,-3.1702 l -10.7411,10.1629 c -0.3771,0.3569 -0.8239,0.5347 -1.3433,0.5347 h -5.124702 c -0.685,0 -1.2737,-0.3213 -1.6441,-0.8976 -0.3894,-0.6056 -0.6407,-1.7455 -0.8081,-2.4495 -0.3571,-1.5012 -0.6599,-3.0246 -0.946,-4.5071 -0.3426,-1.4972 -0.6913,-3.0082 -1.0305,-4.5257 -1.8084,3.7424 -3.5847,7.5022 -5.3603,11.2604 -0.3306,0.6999 -0.993,1.1195 -1.767,1.1195 h -14.0416 c -1.4,0 -1.9794,-1.1559 -2.2999,-2.2863 -0.2484,-0.8768 -0.4235,-1.807 -0.5837,-2.7058 -0.4595,-1.7405 -0.9166,-3.4854 -1.3383,-5.2355 -0.17,-0.7048 -0.4997,-1.9003 -0.4997,-2.6165 0,-0.2978 0.0563,-0.5527 0.1817,-0.8228 3.8133,-8.2147 7.6287,-16.4294 11.4762,-24.6281 1.0391,-2.2142 2.0793,-4.4283 3.1333,-6.6353 0.4601,-0.9634 0.9259,-2.0025 1.4405,-2.936 C 83.924168,0.3706 84.551468,0 85.282768,0 h 21.549002 c 1.8793,0 2.1894,2.0924 2.5033,3.4527 0.4384,1.9001 0.8131,3.8278 1.1849,5.7428 z M 38.440168,23.7361 c -0.3629,0.4836 -0.7261,0.967 -1.0893,1.4504 -2.6838,3.5722 -5.3708,7.142 -8.0581,10.7117 h 11.5687 c -0.8104,-4.0461 -1.6419,-8.1031 -2.4213,-12.1621 z"
     style="fill:#3b3486;fill-rule:evenodd"
     id="path2" />
  <path
     d="m 52.612768,1.9548 c 0.1536,0 1.6398,4.8169 4.4328,14.4258 0.2563,0.6917 3.3823,10.8383 9.3779,30.4657 l -0.205,0.0768 H 4.5697682 c -0.1539,0 -1.025,-2.3828 -2.6135,-7.1232 0.2049,-0.1026 11.6069998,-12.7091 34.2322998,-37.8451 z m -13.1958,17.193 c -0.1537,0.2562 -4.8427,6.4825 -14.0415,18.7047 h 30.3889 v -0.0768 c -8.6091,-1.1019 -12.9138,-1.7425 -12.9138,-1.8961 -1.6912,-8.4555 -2.793,-14.0414 -3.2797,-16.7318 z m 45.8651,-17.193 h 21.549002 c 0.2049,0 0.7942,2.5878 1.7937,7.738 0.0513,0 0.9737,4.2021 2.7927,12.6066 h 0.0513 l 21.4722,-20.3446 h 18.0385 c -0.2049,0.5635 -7.1231,15.4505 -20.7289,44.6607 0,0.1026 -0.1026,0.205 -0.3075,0.3076 h -16.8854 c 0.2562,-0.6407 2.844,-6.3545 7.8148,-17.1162 l -18.0899,17.1162 h -5.124402 c -0.2308,-0.3586 -0.743,-2.4599 -1.4862,-6.3031 -1.1019,-4.8172 -1.8193,-8.1227 -2.1779,-9.993 -0.6661,1.1015 -3.2797,6.5338 -7.8919,16.2961 h -14.0415 c -0.2304,0 -0.5638,-1.1532 -0.9737,-3.4591 -1.2041,-4.561 -1.7934,-7.0206 -1.7934,-7.4308 9.9671,-21.4719 15.2968,-32.8229 15.9885,-34.0784 z"
     style="fill:#ffffff;fill-rule:evenodd"
     id="path4" />
</svg>
